<?xml version="1.0" encoding="utf-8"?>
<!-- Generator: Adobe Illustrator 21.0.0, SVG Export Plug-In . SVG Version: 6.00 Build 0)  -->
<svg version="1.1" id="Warstwa_1" xmlns="http://www.w3.org/2000/svg" xmlns:xlink="http://www.w3.org/1999/xlink" x="0px" y="0px"
	 viewBox="0 0 206 73" style="enable-background:new 0 0 206 73;" xml:space="preserve">
<style type="text/css">
	.st0{fill:#B4301B;}
</style>
<g>
	<path class="st0" d="M81.3,11.5c0.5,0.1,0.9,0.2,1.4,0.5c1.6,0.9,2.7,3.5,2.7,10.7c0,6.5-0.7,9.6-1.7,10.9c-0.5,0.8-1.4,1.3-2,1.4
		v0.4C88.6,34.6,94,30.3,94,23.1c0-6.9-5.4-11.6-12.7-11.9V11.5z"/>
	<path class="st0" d="M96.1,18.1v12.6c0,2.9-0.7,3.6-2.7,3.9V35h13.2v-0.4c-1.8-0.3-2.4-1-2.4-3.5V11.2l-0.1-0.2l-10.3,3v0.3
		c0.3,0.1,0.7,0.4,0.9,0.6C95.6,15.6,96.1,16.3,96.1,18.1"/>
	<path class="st0" d="M69.9,57.2c0.9,1.5,2.8,1.8,4.3,0.9c1.5-0.9,2-2.7,1.1-4.2c-0.9-1.5-2.8-1.8-4.3-0.9
		C69.5,53.9,69,55.7,69.9,57.2"/>
	<path class="st0" d="M38.1,18.4l-4.6,0.7v0.4h11.7c0-4.3-2.8-8-9.2-8.3v0.4C37.4,12.1,38,15.2,38.1,18.4"/>
	<path class="st0" d="M35.2,35.4c7.1,0,10.1-5.6,10.7-8.5l-0.3-0.2c-1.2,1.6-3,2.8-6.2,2.8c-4.5,0-7.4-2.9-7.4-9.1
		c0-5.7,1.2-8.2,2.8-8.9v-0.4c-6.3,0.9-10.9,5.6-10.9,12.6C23.8,29.8,27.6,35.4,35.2,35.4"/>
	<path class="st0" d="M60.1,14c0.2,0,0.4,0.1,0.4,0.1c-0.4,0.5-0.7,1.4-0.7,2.3c0,2.1,1.6,3.6,3.8,3.6c2.5,0,4.3-1.8,4.3-4.4
		c0-2.7-1.7-4.4-4.5-4.4c-2.4,0-4.6,2.1-5.3,4.1v0.2C58.6,14.4,59.5,14,60.1,14"/>
	<path class="st0" d="M60,34.6c-2-0.3-3.1-1.2-3.1-3.8V11.2l-0.1-0.2l-10.3,3v0.3c0.3,0.1,0.7,0.4,0.9,0.6c0.9,0.6,1.4,1.3,1.4,3.1
		v12.6c0,2.9-0.7,3.6-2.7,3.9V35H60V34.6z"/>
	<path class="st0" d="M186.1,48.7V49c2.5,0.5,5.3,4.2,6.2,7.4h0.4l-0.3-6.9C191.6,49.2,188.5,48.7,186.1,48.7"/>
	<path class="st0" d="M168.6,19.2v11.9c0,2.5-0.7,3.2-2.4,3.5V35h13.2v-0.4c-1.9-0.4-2.7-1-2.7-3.9V18.1c0-4-1.1-6.9-5.6-6.9
		c-3.4,0-6.5,2.2-7.9,4.5v0.2c0.7-0.3,1.4-0.5,2.3-0.5C167.7,15.4,168.6,16.5,168.6,19.2"/>
	<path class="st0" d="M153.9,19.2v11.9c0,2.5-0.7,3.2-2.4,3.5V35h12.8v-0.4c-1.8-0.3-2.3-1-2.3-3.5v-13c0-4-1.1-6.9-5.6-6.9
		c-3.4,0-6.5,2.2-7.9,4.5v0.2c0.7-0.3,1.4-0.5,2.3-0.5C153,15.4,153.9,16.5,153.9,19.2"/>
	<path class="st0" d="M135.9,34.6c-1.9-0.4-2.8-1-2.8-3.9V18.3c0-2.1,0.1-5,0.2-7.1l-0.1-0.2l-10.5,3v0.3c0.3,0.1,0.8,0.5,1,0.6
		c0.9,0.7,1.4,1.4,1.4,3.2v12.5c0,2.9-0.7,3.6-2.7,3.9V35h13.5V34.6z"/>
	<path class="st0" d="M192.5,35.4v-0.4c-0.5-0.1-1-0.3-1.4-0.6c-1.6-0.9-2.8-3.5-2.8-10.6c0-6.5,0.8-9.7,1.8-11
		c0.5-0.7,1.2-1.2,2-1.3v-0.4c-6.8,0.7-12.2,5.2-12.2,12.3C179.7,30.4,185.1,35.1,192.5,35.4"/>
	<path class="st0" d="M149.6,34.6c-1.8-0.3-2.4-1-2.4-3.5V11.2l-0.1-0.2l-10.3,3v0.3c0.3,0.1,0.7,0.4,0.9,0.6
		c0.9,0.6,1.4,1.3,1.4,3.1v12.6c0,2.9-0.7,3.6-2.7,3.9V35h13.2V34.6z"/>
	<path class="st0" d="M129,9.8c2.4,0,4.4-1.7,4.4-4.1c0-2.4-2-4.1-4.4-4.1c-2.4,0-4.4,1.7-4.4,4.1C124.7,8.1,126.6,9.8,129,9.8"/>
	<path class="st0" d="M139.3,47.4c2.4,0,4.4-1.7,4.4-4.1c0-2.4-2-4.1-4.4-4.1c-2.4,0-4.4,1.7-4.4,4.1
		C134.9,45.7,136.9,47.4,139.3,47.4"/>
	<path class="st0" d="M111.2,19.2v11.9c0,2.5-0.7,3.2-2.4,3.5V35h13.1v-0.4c-1.9-0.4-2.6-1-2.6-3.9V18.1c0-4-1.5-6.9-6-6.9
		c-3.4,0-6.5,2.2-7.9,4.5v0.2c0.7-0.3,1.6-0.5,2.4-0.5C110.1,15.4,111.2,16.5,111.2,19.2"/>
	<path class="st0" d="M172.5,68.2V55.6c0-4-1.5-6.9-6-6.9c-3.4,0-6.5,2.2-7.9,4.5v0.2c0.7-0.3,1.6-0.5,2.4-0.5
		c2.4,0,3.5,1.1,3.5,3.8v11.9c0,2.5-0.7,3.2-2.4,3.5v0.4h13.1v-0.4C173.2,71.8,172.5,71.1,172.5,68.2"/>
	<path class="st0" d="M157.4,68.6V48.7l-0.1-0.2l-10.3,3v0.3c0.3,0.1,0.7,0.4,0.9,0.6c0.9,0.6,1.4,1.3,1.4,3.1v12.6
		c0,2.9-0.7,3.6-2.7,3.9v0.4h13.2v-0.4C158.1,71.8,157.4,71.1,157.4,68.6"/>
	<path class="st0" d="M108.4,48.7c-2.4,0-4.6,2.1-5.3,4.1v0.2c0.6-1.1,1.4-1.4,2.1-1.4c0.2,0,0.4,0.1,0.4,0.1
		c-0.4,0.5-0.7,1.4-0.7,2.3c0,2.1,1.6,3.6,3.8,3.6c2.5,0,4.3-1.8,4.3-4.4C113,50.4,111.3,48.7,108.4,48.7"/>
	<path class="st0" d="M132.9,67.8c-0.7,0.2-2.2,0.5-3.5,0.5c-2.7,0-4.2-1.3-4.2-4.2V52.3h6.8l0.5-3h-7.3v-6l-0.7-0.3l-10.1,8.5v0.9
		h2.6v13.9c0,5.3,3.3,6.7,7.1,6.7c4.1,0,7.5-2.8,8.7-4.8V67.8z"/>
	<path class="st0" d="M143.4,68.3V55.9c0-2.1,0.1-5,0.2-7.1l-0.1-0.2l-10.5,3v0.3c0.3,0.1,0.8,0.5,1,0.6c0.9,0.7,1.4,1.4,1.4,3.2
		v12.5c0,2.9-0.7,3.6-2.7,3.9v0.4h13.5v-0.4C144.3,71.8,143.4,71.2,143.4,68.3"/>
	<path class="st0" d="M193.3,11.2v0.4c0.5,0.1,0.9,0.2,1.4,0.5c1.6,0.9,2.7,3.5,2.7,10.7c0,6.5-0.7,9.6-1.7,10.9
		c-0.5,0.8-1.4,1.3-2,1.4v0.4c6.9-0.8,12.3-5.2,12.3-12.3C206,16.2,200.6,11.5,193.3,11.2"/>
	<path class="st0" d="M176.4,64.1H176l0.3,7.4c1.4,0.6,4.7,1.4,7,1.4v-0.3C181,71.9,177.3,67.5,176.4,64.1"/>
	<path class="st0" d="M187.5,57.1c-2.4-1.5-5.1-2.8-5.1-5.2c0-1.8,1.2-2.6,2.2-2.9v-0.4c-5,0.5-8.4,3.4-8.4,7.5
		c0,4.3,3.1,6.3,6.1,8.1c2.7,1.5,5.1,2.9,5.1,5.1c0,2-1.1,2.9-2.6,3.2v0.3c5.6-0.4,9-3.1,9-8.1C193.9,61.3,190.9,59.2,187.5,57.1"/>
	<g>
		<path class="st0" d="M8.1,31.3c-1.3-2.1-3.9-2.4-5.9-1.2c-2.1,1.3-2.8,3.8-1.5,5.8c1.3,2.1,3.9,2.4,5.9,1.2
			C8.6,35.8,9.3,33.3,8.1,31.3"/>
		<path class="st0" d="M24.3,2.9V2.5H6.9v0.4c2.9,0.5,4.1,1.7,4.1,6v22.3c0,0.7,0,1.3-0.1,1.9l0,0c0,0-0.2,3.8-4.5,5.9
			c0,0,4.2,0.7,8.3-1.5c1.2-0.6,2.2-1.4,3-2.2c0,0,0.1-0.1,0.1-0.1l0,0c2.2-2.4,2.5-5.2,2.5-5.9V8.9C20.2,4.4,21.6,3.4,24.3,2.9"/>
	</g>
	<polygon class="st0" points="42.8,72.8 42.8,72.7 42.8,72.8 	"/>
	<path class="st0" d="M64,65.8l-0.8-19.4c-0.2-4.5,1.2-5.6,4.1-6V40H53.7v0h-0.1l-6.7,17.1l0.9,2.1l6-15.5l0.8,22.8
		c0.2,4.2-1.5,5.2-4.1,5.6v0.4h17.5v-0.4C65.4,71.6,64.1,70.4,64,65.8"/>
	<path class="st0" d="M46.3,58.7L38,40H23.3v0.4c1.6,0.2,3.3,1,4.5,2.1c1.4,1.2,2.4,2.9,3.5,5.2l11.2,25l0.1-0.1l0.2,0.1l4.6-11.9
		L46.3,58.7L46.3,58.7z"/>
	<path class="st0" d="M31.2,69.9c-1-1.2-1.4-3.2-1.4-5.3l0.9-15L29.4,47l-1.2,16.6c-0.2,1.7-0.5,2.9-0.8,3.8c-0.4,0.7-0.8,1.4-1.2,2
		c-0.1,0-0.1,0.1-0.1,0.1l0,0c-0.1,0.2-0.3,0.4-0.5,0.5c-1.2,1.3-2.5,1.9-4.4,2.2v0.4h14.6v-0.4C33.8,71.9,32.5,71.3,31.2,69.9"/>
	<path class="st0" d="M91.5,69.1c-0.3,0.2-0.8,0.4-1.3,0.4c-1.2,0-1.9-0.6-1.9-2.2V55.8c0-4.4-2.2-7.2-7.9-7.2
		c-2.7,0-5.8,1.2-7.8,2.6v0.2c4.6,0,7.7,1.1,7.7,4.8v10.6c0,3.9,1.8,6,5.3,6c3.2,0,5.2-1.9,5.9-3.6V69.1z"/>
	<path class="st0" d="M75.7,65.1c0-1.2,0.3-2.4,0.8-3.1c0.5-0.7,1.6-1.2,2.5-1.5V60c-2.3,0.6-7.8,1.9-8.9,2.3
		c-1,0.4-2.4,2.1-2.4,4.8c0,3.2,2,5.8,5.9,5.8c3.3,0,5.5-2.6,5.9-3.8v-0.2c-0.3,0.2-1,0.4-1.5,0.4C76.5,69.3,75.7,68.3,75.7,65.1"/>
	<path class="st0" d="M102,68.4V48.7l-0.1-0.2l-10.3,3v0.3c0.3,0.1,0.7,0.4,0.9,0.6c0.9,0.6,1.4,1.3,1.4,3.1v12.6
		c0,2.9-0.7,3.6-2.7,3.9v0.4h13.8v-0.4C103.2,71.9,102,70.9,102,68.4"/>
	<path class="st0" d="M75.1,12.4c-4.3,1.9-7.4,5.7-7.4,11.1c0,6.9,5.4,11.6,12.7,11.9v-0.4c-0.5-0.1-1-0.3-1.4-0.6
		c-1.6-0.9-2.8-3.5-2.8-10.6c0-6.6,0.8-9.7,1.8-11c0.5-0.7,1.2-1.2,2-1.3v-0.4c-1.2,0.1-2.3,0.3-3.3,0.7c1.4-2.3,1.9-2.1,1.9-2.1
		c1.8,0.1,3.4-0.6,3.4-0.6c6-1.9,6.2-9,6.2-9l-0.2-0.1c-0.1,0.1-0.2,0.2-0.3,0.3c-1.1,1.2-2.5,1.8-4.1,2.1c-5.5,1.2-6.1,3.6-6,5.8
		l0,0.4c2.3-2.4,5.1-3.9,6.1-4.3l0.1,0.2C79,7.3,75.6,11.8,75.1,12.4"/>
</g>
</svg>
